<svg width="155" height="126" viewBox="0 0 155 126" fill="none" xmlns="http://www.w3.org/2000/svg">
<g filter="url(#filter0_d_4_104)">
<path d="M80.8 23.8L59 95.2C58.9 95.6 58.7 95.9 58.5 96.2L56.7 103.3C54.4 113 49.7 117.9 42.5 117.9C35.3 117.9 30.4 113.2 27.6 104L5.6 29.6C5.1 28.3 5.1 27 4.6 25.9C4.2 23.9 4 21.8 4 19.7C4 12.7 6.6 7.09996 13.7 5.09996C15 4.59996 16.5 4.39996 17.9 4.39996C24.5 4.39996 29.1 9.39996 31.6 19.5L42.2 61L56.6 14.1L56.9 14.2C57.6 14.5 58.3 14.7 59 14.7H59.2L50.8 42.3L52.6 48.2L57.4 32.4C57.8 32.6 58.2 32.7 58.6 32.7H58.7L53.2 50.6L55.3 57.3L64.3 27.7C65 28 65.7 28.2 66.4 28.2H66.6L56.6 61.3L59.1 69.2L67.8 40.7C68.1 40.9 68.5 40.9 68.8 41H68.9V41.1L59.7 71.2L61.8 77.8L78.5 23.3C79.2 23.6 79.9 23.8 80.6 23.8H80.8Z" fill="#08074E"/>
<path d="M78.8199 23.9626C79.2471 24.1141 79.6855 24.2266 80.1323 24.2745L58.5218 95.054L58.518 95.0662L58.5149 95.0787C58.4387 95.3837 58.2877 95.617 58.084 95.9226L58.0364 95.994L58.0153 96.0771L56.2153 103.177L56.2153 103.177L56.2135 103.185C55.075 107.986 53.3552 111.54 51.0785 113.889C48.8157 116.224 45.9729 117.4 42.5 117.4C39.0206 117.4 36.1199 116.269 33.7423 114.036C31.3533 111.791 29.4639 108.406 28.0789 103.856C28.0787 103.856 28.0785 103.855 28.0783 103.854L6.07948 29.4582L6.07383 29.4391L6.06667 29.4205C5.8419 28.8361 5.72446 28.2483 5.60208 27.6359L5.59029 27.5769C5.47035 26.9772 5.34051 26.3421 5.07944 25.7474C4.69346 23.7977 4.5 21.7497 4.5 19.7C4.5 16.2563 5.14032 13.2061 6.61456 10.785C8.08121 8.37635 10.3974 6.54974 13.8356 5.58123L13.8579 5.57495L13.8795 5.56664C15.1064 5.09476 16.5417 4.89996 17.9 4.89996C21.0556 4.89996 23.7225 6.08788 25.9178 8.49907C28.1277 10.9264 29.8751 14.6124 31.1146 19.6201L31.1156 19.6237L41.7156 61.1237L42.1558 62.8474L42.678 61.1467L56.9232 14.7507C57.4436 14.9582 57.9818 15.1156 58.5329 15.1746L50.3217 42.1544L50.2773 42.3001L50.3218 42.4459L52.1218 48.3459L52.601 49.9167L53.0784 48.3453L57.7202 33.066C57.8262 33.0984 57.9327 33.125 58.0399 33.1458L52.7221 50.4531L52.6765 50.6014L52.7229 50.7495L54.8229 57.4495L55.3073 58.9949L55.7784 57.4454L64.621 28.363C65.0485 28.5145 65.4871 28.627 65.9342 28.6747L56.1214 61.1554L56.0766 61.3034L56.1233 61.4508L58.6233 69.3508L59.1086 70.8843L59.5782 69.3459L68.1213 41.3598C68.1468 41.3658 68.1715 41.3713 68.1952 41.3764C68.2282 41.3834 68.2586 41.3897 68.2869 41.3954L59.2218 71.0538L59.1763 71.2029L59.2235 71.3516L61.3235 77.9516L61.809 79.4773L62.2781 77.9464L78.8199 23.9626Z" stroke="white"/>
</g>
<g filter="url(#filter1_d_4_104)">
<path d="M123.3 10.6H123.5C124.8 10.6 126.1 10.1 127 9.2C128 8.2 128.6 6.9 128.7 5.5C128.8 4.1 128.3 2.8 127.3 1.7C126.4 0.7 125.1 0.1 123.7 0C122.3 0 121 0.5 120 1.4C119.3 2 118.8 2.8 118.6 3.7C118.5 4.1 118.4 4.6 118.4 5.1C118.3 6.5 118.8 7.9 119.8 8.9C120.2 9.4 120.7 9.7 121.3 10C121.9 10.4 122.6 10.6 123.3 10.6ZM121.5 7.3C120.4 6.1 120.5 4.4 121.7 3.3C122.2 2.8 123 2.5 123.7 2.5C124.4 2.5 125.1 2.8 125.6 3.4C126.1 3.9 126.4 4.7 126.3 5.4C126.3 5.6 126.3 5.9 126.2 6.1C126.1 6.6 125.8 7 125.4 7.3C124.9 7.8 124.1 8.1 123.4 8.1C122.7 8.2 122 7.8 121.5 7.3Z" fill="#08074E"/>
<path d="M126.928 2.03449L126.93 2.03634C127.85 3.04805 128.29 4.21719 128.201 5.46438C128.11 6.74242 127.563 7.9301 126.646 8.84645C125.848 9.64478 124.679 10.1 123.5 10.1H123.3C122.695 10.1 122.092 9.92694 121.577 9.58397L121.551 9.56671L121.524 9.55279C120.94 9.26074 120.52 9.00014 120.19 8.58765L120.173 8.56603L120.154 8.54645C119.26 7.65245 118.809 6.39594 118.899 5.13562L118.9 5.11783V5.1C118.9 4.66061 118.989 4.20691 119.085 3.82127L119.085 3.82131L119.088 3.80847C119.263 3.02045 119.702 2.3136 120.325 1.77963L120.325 1.77974L120.334 1.77165C121.237 0.959623 122.41 0.504248 123.682 0.50003C124.958 0.595418 126.126 1.14305 126.928 2.03449ZM121.131 7.63786L121.139 7.64587L121.146 7.65355C121.686 8.19311 122.521 8.71392 123.435 8.5998C124.234 8.5904 125.133 8.25764 125.728 7.67873C126.175 7.33548 126.54 6.86304 126.678 6.25719C126.745 6.09646 126.772 5.92974 126.785 5.79976C126.799 5.66296 126.8 5.52966 126.8 5.43346C126.908 4.58034 126.551 3.65479 125.97 3.06271C125.373 2.35695 124.537 2 123.7 2C122.884 2 121.957 2.34055 121.354 2.93864C119.964 4.21974 119.841 6.23063 121.131 7.63786Z" stroke="white"/>
</g>
<g filter="url(#filter2_d_4_104)">
<path d="M105.1 61.9L121.2 9.09999C121.4 8.39999 122.1 7.89999 122.8 7.99999C123.5 8.19999 124 8.89999 123.9 9.59999C123.9 9.69999 123.9 9.79999 123.8 9.79999L107.7 62.6C107.5 63.3 106.8 63.8 106.1 63.7C105.4 63.5 104.9 62.8 105 62.1C105 62.1 105 62 105.1 61.9Z" fill="#08074E"/>
<path d="M106.204 63.209C105.752 63.063 105.458 62.6202 105.49 62.2173L105.542 62.1652L105.578 62.0458L121.678 9.24582L121.678 9.24584L121.681 9.23735C121.817 8.76201 122.28 8.45063 122.696 8.49102C123.103 8.62273 123.383 8.99611 123.41 9.36386L123.322 9.65415L107.222 62.4542L107.222 62.4541L107.219 62.4626C107.083 62.938 106.62 63.2493 106.204 63.209Z" stroke="white"/>
</g>
<g filter="url(#filter3_d_4_104)">
<path d="M130.9 24.1H131.1C132.4 24.1 133.6 23.6 134.6 22.7C136.7 20.7 136.9 17.4 134.9 15.3C134 14.3 132.7 13.7 131.3 13.6C129.9 13.6 128.6 14.1 127.6 15C126.9 15.6 126.4 16.4 126.2 17.3C126.1 17.7 126 18.2 126 18.7C125.9 20.1 126.4 21.5 127.4 22.5C127.8 23 128.3 23.3 128.9 23.6C129.5 23.9 130.2 24 130.9 24.1ZM129.1 20.7C128 19.5 128.1 17.8 129.3 16.7C129.8 16.2 130.5 15.9 131.3 16C132 16 132.7 16.3 133.2 16.9C133.7 17.4 134 18.2 134 18.9C134 19.1 133.9 19.4 133.9 19.6C133.8 20.1 133.5 20.5 133.1 20.8C132.6 21.3 131.8 21.6 131.1 21.6C130.3 21.6 129.6 21.3 129.1 20.7Z" fill="#08074E"/>
<path d="M134.528 15.6345L134.528 15.6346L134.538 15.6448C136.332 17.5281 136.171 20.5084 134.26 22.3331C133.344 23.1561 132.262 23.6 131.1 23.6H130.936C130.233 23.4994 129.63 23.4057 129.124 23.1528C128.539 22.8607 128.12 22.6001 127.79 22.1876L127.773 22.166L127.754 22.1464C126.86 21.2524 126.409 19.9959 126.499 18.7356L126.5 18.7178V18.7C126.5 18.2606 126.589 17.8069 126.685 17.4212L126.685 17.4213L126.688 17.4084C126.863 16.6204 127.302 15.9136 127.925 15.3796L127.925 15.3797L127.934 15.3716C128.837 14.5596 130.01 14.1042 131.282 14.1C132.558 14.1954 133.726 14.743 134.528 15.6345ZM134.39 19.698L134.4 19.6495V19.6C134.4 19.5603 134.412 19.4899 134.44 19.348C134.442 19.3418 134.443 19.3354 134.444 19.3287C134.466 19.2193 134.5 19.0511 134.5 18.9C134.5 18.0882 134.163 17.166 133.57 16.5627C132.98 15.8657 132.158 15.5089 131.331 15.5001C130.378 15.3908 129.544 15.7534 128.954 16.3387C127.567 17.6172 127.442 19.6224 128.724 21.0292C129.327 21.748 130.17 22.1 131.1 22.1C131.908 22.1 132.825 21.766 133.428 21.1787C133.89 20.8244 134.263 20.3323 134.39 19.698Z" stroke="white"/>
</g>
<g filter="url(#filter4_d_4_104)">
<path d="M114.6 69.9L129.1 22.4C129.2 21.7 129.9 21.3 130.5 21.4C131.2 21.5 131.6 22.2 131.5 22.8C131.5 22.9 131.5 23 131.4 23L116.9 70.5C116.7 71.1 116.1 71.5 115.4 71.4C114.7 71.3 114.4 70.6 114.5 69.9C114.6 70 114.6 70 114.6 69.9Z" fill="#08074E"/>
<path d="M115.089 70.6355C115.037 70.5396 115 70.4181 114.987 70.2807C115.005 70.2576 115.019 70.2352 115.031 70.2154C115.081 70.1253 115.092 70.041 115.094 70.019L115.095 70.0182C115.096 70.006 115.097 69.9933 115.098 69.9811L129.578 22.546L129.59 22.509L129.595 22.4707C129.649 22.0891 130.053 21.8323 130.418 21.8932L130.418 21.8933L130.429 21.8949C130.754 21.9413 130.989 22.2403 131.014 22.5535L130.922 22.854L116.424 70.3472C116.298 70.7157 115.929 70.9704 115.471 70.905C115.292 70.8794 115.171 70.7858 115.089 70.6355Z" stroke="white"/>
</g>
<g filter="url(#filter5_d_4_104)">
<path d="M133.2 36.9H133.3C133.9 36.9 134.5 36.7 135 36.2C135.5 35.7 135.8 35.1 135.8 34.4C135.8 33.7 135.6 33.1 135.1 32.6C134.7 32.1 134 31.8 133.4 31.8C132.7 31.8 132.1 32 131.6 32.5C131.3 32.8 131 33.2 130.9 33.6C130.8 33.8 130.8 34 130.8 34.3C130.8 35 131 35.6 131.5 36.1C131.7 36.3 131.9 36.5 132.2 36.6C132.5 36.8 132.9 36.9 133.2 36.9ZM132.4 35.3C131.9 34.7 131.9 33.9 132.5 33.4C132.8 33.1 133.1 33 133.5 33C133.9 33 134.2 33.2 134.4 33.4C134.9 34 134.9 34.8 134.3 35.3C134 35.6 133.7 35.7 133.3 35.7C132.9 35.7 132.6 35.6 132.4 35.3Z" fill="#08074E"/>
<path d="M134.71 32.9123L134.727 32.934L134.746 32.9535C135.136 33.3432 135.3 33.8071 135.3 34.4C135.3 34.9418 135.072 35.4204 134.646 35.8464C134.25 36.2428 133.782 36.4 133.3 36.4H133.2C132.987 36.4 132.686 36.3233 132.477 36.184L132.422 36.1468L132.358 36.1256C132.186 36.0681 132.062 35.9553 131.854 35.7464C131.464 35.3568 131.3 34.8929 131.3 34.3C131.3 33.9735 131.309 33.8991 131.347 33.8236L131.372 33.7745L131.385 33.7213C131.452 33.4516 131.677 33.1297 131.954 32.8535C132.343 32.4639 132.807 32.3 133.4 32.3C133.862 32.3 134.413 32.5413 134.71 32.9123ZM134.784 33.0799L134.77 33.0625L134.754 33.0464C134.499 32.7919 134.079 32.5 133.5 32.5C133.258 32.5 133.019 32.5302 132.783 32.6208C132.552 32.7098 132.349 32.8473 132.162 33.0306C131.338 33.7336 131.376 34.834 131.999 35.6002C132.329 36.0756 132.82 36.2 133.3 36.2C133.542 36.2 133.781 36.1698 134.017 36.0792C134.248 35.9902 134.451 35.8527 134.638 35.6693C135.469 34.9603 135.423 33.8468 134.784 33.0799Z" stroke="white"/>
</g>
<g filter="url(#filter6_d_4_104)">
<path d="M118.6 81L132.2 36.7C132.4 36.1 132.8 35.6 133.1 35.7C133.4 35.8 133.5 36.4 133.3 37L119.7 81.3C119.5 81.9 119.1 82.4 118.8 82.3C118.5 82.2 118.4 81.6 118.6 81Z" fill="#08074E"/>
<path d="M119.074 81.1581L119.074 81.1582L119.078 81.1467L132.676 36.8527C132.738 36.6674 132.821 36.5033 132.904 36.3791C132.905 36.5113 132.882 36.6724 132.826 36.8419L132.826 36.8418L132.822 36.8533L119.224 81.1472C119.162 81.3326 119.079 81.4967 118.996 81.6208C118.995 81.4887 119.018 81.3276 119.074 81.1581Z" stroke="white"/>
</g>
<g filter="url(#filter7_d_4_104)">
<path d="M122.2 31H122.3C122.9 31 123.5 30.8 124 30.3C125 29.3 125.1 27.7 124.1 26.7C123.7 26.2 123 25.9 122.4 25.9C121.7 25.9 121.1 26.1 120.6 26.6C120.3 26.9 120 27.3 119.9 27.7C119.8 27.9 119.8 28.1 119.8 28.4C119.8 29.1 120 29.7 120.5 30.2C120.7 30.4 120.9 30.6 121.2 30.7C121.5 30.9 121.8 31 122.2 31ZM121.3 29.4C120.8 28.8 120.8 28 121.4 27.5C121.9 27 122.7 27 123.3 27.5C123.6 27.8 123.7 28.1 123.7 28.5C123.7 28.6 123.7 28.7 123.6 28.8C123.5 29 123.4 29.2 123.2 29.4C122.9 29.6 122.6 29.8 122.2 29.8C121.9 29.8 121.5 29.6 121.3 29.4Z" fill="#08074E"/>
<path d="M123.71 27.0123L123.727 27.0339L123.746 27.0535C124.526 27.8331 124.477 29.1156 123.646 29.9464C123.25 30.3428 122.782 30.5 122.3 30.5H122.2C121.902 30.5 121.698 30.4309 121.477 30.2839L121.422 30.2468L121.358 30.2256C121.186 30.1681 121.062 30.0553 120.854 29.8464C120.464 29.4568 120.3 28.9928 120.3 28.4C120.3 28.0735 120.309 27.9991 120.347 27.9236L120.372 27.8745L120.385 27.8212C120.452 27.5516 120.677 27.2297 120.954 26.9535C121.343 26.5639 121.807 26.4 122.4 26.4C122.862 26.4 123.413 26.6413 123.71 27.0123ZM120.916 29.7201L120.93 29.7375L120.946 29.7535C121.098 29.9046 121.301 30.0355 121.503 30.1289C121.703 30.2211 121.952 30.3 122.2 30.3C122.753 30.3 123.164 30.0251 123.448 29.8358C123.458 29.8291 123.468 29.8225 123.477 29.816L123.519 29.7885L123.554 29.7535C123.792 29.5151 123.922 29.2736 124.018 29.0814C124.201 28.8537 124.2 28.6145 124.2 28.5106C124.2 28.5069 124.2 28.5033 124.2 28.5C124.2 28.2582 124.17 28.0186 124.079 27.783C123.988 27.5451 123.845 27.3377 123.654 27.1464L123.638 27.1304L123.62 27.1159C122.859 26.482 121.774 26.436 121.063 27.1304C120.231 27.8394 120.277 28.953 120.916 29.7201Z" stroke="white"/>
</g>
<g filter="url(#filter8_d_4_104)">
<path d="M110.8 64.7L121.3 30.5C121.4 30 121.8 29.7 122.1 29.8C122.4 29.9 122.5 30.4 122.4 30.9L111.9 65.1C111.8 65.6 111.4 65.9 111.1 65.8C110.8 65.7 110.6 65.2 110.8 64.7Z" fill="#08074E"/>
<path d="M111.264 64.8857L111.272 64.8665L111.278 64.8467L121.778 30.6467L121.785 30.6227L121.79 30.598C121.815 30.4751 121.868 30.3873 121.918 30.3346C121.943 30.4432 121.947 30.6015 121.914 30.779L111.422 64.9532L111.415 64.9773L111.41 65.0019C111.381 65.1474 111.311 65.2437 111.255 65.2909C111.255 65.2909 111.255 65.291 111.255 65.291C111.25 65.2801 111.245 65.2668 111.24 65.2508C111.212 65.1611 111.207 65.0293 111.264 64.8857ZM121.992 30.2796C121.992 30.2798 121.991 30.2804 121.988 30.2809C121.991 30.2797 121.992 30.2794 121.992 30.2796ZM121.887 30.2425C121.884 30.2398 121.883 30.238 121.883 30.2378C121.883 30.2376 121.885 30.239 121.887 30.2425ZM111.207 65.3203C111.207 65.3201 111.209 65.3195 111.212 65.3191C111.209 65.3203 111.207 65.3205 111.207 65.3203Z" stroke="white"/>
</g>
<g filter="url(#filter9_d_4_104)">
<path d="M144.9 19.8H145.1C146.4 19.8 147.6 19.3 148.6 18.4C149.6 17.4 150.2 16.1 150.3 14.7C150.4 13.3 149.9 12 148.9 10.9C148 9.89995 146.7 9.29995 145.3 9.19995C143.9 9.19995 142.6 9.69995 141.6 10.6C140.9 11.2 140.4 12 140.2 12.9C140.1 13.3 140 13.8 140 14.3C139.9 15.7 140.4 17.1 141.4 18.1C141.8 18.6 142.3 18.9 142.9 19.2C143.5 19.6 144.2 19.8 144.9 19.8ZM143.1 16.4C142 15.1999 142.1 13.5 143.3 12.4C144.4 11.4 146.1 11.4 147.2 12.5C147.7 13 148 13.8 147.9 14.5C147.9 14.8 147.8 15 147.8 15.2C147.7 15.7 147.4 16.1 147 16.4C146.5 16.9 145.7 17.2 145 17.2C144.3 17.3 143.6 17 143.1 16.4Z" fill="#08074E"/>
<path d="M148.528 11.2344L148.53 11.2363C149.45 12.248 149.89 13.4171 149.801 14.6643C149.71 15.9381 149.166 17.122 148.256 18.0371C147.34 18.8575 146.26 19.3 145.1 19.3H144.9C144.295 19.3 143.692 19.1269 143.177 18.7839L143.151 18.7667L143.124 18.7527C142.539 18.4607 142.12 18.2001 141.79 17.7876L141.773 17.766L141.754 17.7464C140.86 16.8524 140.409 15.5959 140.499 14.3356L140.5 14.3178V14.3C140.5 13.8606 140.589 13.4069 140.685 13.0212L140.685 13.0213L140.688 13.0084C140.863 12.2204 141.302 11.5136 141.925 10.9796L141.925 10.9797L141.934 10.9716C142.837 10.1596 144.01 9.7042 145.282 9.69998C146.558 9.79537 147.726 10.343 148.528 11.2344ZM142.964 12.03L142.964 12.03L142.962 12.0314C141.568 13.3095 141.44 15.3197 142.724 16.7292C143.31 17.4272 144.156 17.8121 145.035 17.6997C145.834 17.6902 146.733 17.3575 147.328 16.7787C147.79 16.4243 148.163 15.9323 148.29 15.298L148.3 15.2495V15.2C148.3 15.1685 148.307 15.1337 148.338 14.9959C148.363 14.8823 148.396 14.7263 148.4 14.5362C148.51 13.6744 148.145 12.7383 147.554 12.1464C146.261 10.8538 144.257 10.8541 142.964 12.03Z" stroke="white"/>
</g>
<g filter="url(#filter10_d_4_104)">
<path d="M121.1 90.4L143 18.9C143.3 17.9 144.1 17.2 144.7 17.4C145.3 17.6 145.6 18.6 145.3 19.6L123.4 91.1C123.1 92.1 122.3 92.8 121.7 92.6C121.1 92.4 120.7 91.4 121.1 90.4Z" fill="#08074E"/>
<path d="M121.564 90.5857L121.572 90.5663L121.578 90.5464L143.478 19.0464L143.479 19.0437C143.605 18.6244 143.832 18.2827 144.068 18.0753C144.318 17.8549 144.485 17.8554 144.542 17.8743C144.622 17.901 144.767 18.0185 144.856 18.3354C144.941 18.6364 144.946 19.0388 144.822 19.4549C144.821 19.4554 144.821 19.4558 144.821 19.4563L122.922 90.9536L122.921 90.9563C122.795 91.3756 122.568 91.7173 122.332 91.9246C122.082 92.1451 121.915 92.1446 121.858 92.1256C121.761 92.0933 121.598 91.9564 121.502 91.6509C121.412 91.3611 121.407 90.9793 121.564 90.5857Z" stroke="white"/>
</g>
<g filter="url(#filter11_d_4_104)">
<path d="M109.3 47.6C104.7 62.6 100 77.7999 100 77.7999C98 84.1999 92.1 88.3999 85.4 88.2999C81.6 88.1999 78 87.1 74.9 84.9L80.1 100.4C84 111.9 90.6 117.7 100.2 117.7C109.8 117.7 116.4 111.9 120.3 100.4L123.2 91.7999L109.3 47.6ZM88.5 39.5L82.2 18.8C80.1 12.3 76.5 4.19995 68.3 4.19995C60.1 4.19995 54.7 11.2 54.7 19.1V22C55.1 25 55.8 27.9999 57 30.9L71.6 74.9C73.5 80.7 77.9 83.5 82.3 83.5C92 83.5 95.2 73.5 96.5 65.5C95.2 61.9 92.1 50.3 88.5 39.5Z" fill="#08074E"/>
<path d="M75.8315 86.1043C78.7277 87.8364 81.9839 88.7102 85.3869 88.7998L85.3926 88.7999C92.3103 88.9031 98.4101 84.5639 100.477 77.9491L100.478 77.9477L100 77.7999C100.478 77.9477 100.478 77.9476 100.478 77.9475L100.478 77.947L100.479 77.9449L100.481 77.9366L100.491 77.9036L100.532 77.7733L100.689 77.2652L101.284 75.3381C101.797 73.6787 102.528 71.3099 103.403 68.4723C105.033 63.1853 107.163 56.2709 109.306 49.2855L122.674 91.7945L119.827 100.239C117.894 105.937 115.309 110.174 112.06 112.984C108.821 115.787 104.89 117.2 100.2 117.2C95.5098 117.2 91.5788 115.787 88.3396 112.984C85.0911 110.174 82.506 105.937 80.5738 100.24C80.5737 100.24 80.5736 100.24 80.5735 100.239L75.8315 86.1043ZM88.0217 39.6455L88.0215 39.6456L88.0257 39.6581C89.8227 45.0492 91.4956 50.642 92.883 55.3415C93.0752 55.9926 93.262 56.627 93.4431 57.2417C94.5367 60.9545 95.4182 63.9474 95.9857 65.5468C95.3358 69.4948 94.2246 73.8579 92.1253 77.236C90.0182 80.6269 86.937 83 82.3 83C78.1321 83 73.9129 80.3544 72.0752 74.7443L72.0746 74.7425L57.4746 30.7425L57.4689 30.7254L57.462 30.7088C56.2867 27.8684 55.5965 24.9236 55.2 21.9667V19.1C55.2 11.4071 60.4405 4.69995 68.3 4.69995C72.2049 4.69995 75.0212 6.61732 77.1415 9.36773C79.2731 12.1327 80.6767 15.712 81.7229 18.9497L88.0217 39.6455Z" stroke="white"/>
</g>
<defs>
<filter id="filter0_d_4_104" x="0" y="4.39996" width="84.8" height="121.5" filterUnits="userSpaceOnUse" color-interpolation-filters="sRGB">
<feFlood flood-opacity="0" result="BackgroundImageFix"/>
<feColorMatrix in="SourceAlpha" type="matrix" values="0 0 0 0 0 0 0 0 0 0 0 0 0 0 0 0 0 0 127 0" result="hardAlpha"/>
<feOffset dy="4"/>
<feGaussianBlur stdDeviation="2"/>
<feComposite in2="hardAlpha" operator="out"/>
<feColorMatrix type="matrix" values="0 0 0 0 0 0 0 0 0 0 0 0 0 0 0 0 0 0 0.25 0"/>
<feBlend mode="normal" in2="BackgroundImageFix" result="effect1_dropShadow_4_104"/>
<feBlend mode="normal" in="SourceGraphic" in2="effect1_dropShadow_4_104" result="shape"/>
</filter>
<filter id="filter1_d_4_104" x="114.387" y="0" width="18.3251" height="18.6" filterUnits="userSpaceOnUse" color-interpolation-filters="sRGB">
<feFlood flood-opacity="0" result="BackgroundImageFix"/>
<feColorMatrix in="SourceAlpha" type="matrix" values="0 0 0 0 0 0 0 0 0 0 0 0 0 0 0 0 0 0 127 0" result="hardAlpha"/>
<feOffset dy="4"/>
<feGaussianBlur stdDeviation="2"/>
<feComposite in2="hardAlpha" operator="out"/>
<feColorMatrix type="matrix" values="0 0 0 0 0 0 0 0 0 0 0 0 0 0 0 0 0 0 0.25 0"/>
<feBlend mode="normal" in2="BackgroundImageFix" result="effect1_dropShadow_4_104"/>
<feBlend mode="normal" in="SourceGraphic" in2="effect1_dropShadow_4_104" result="shape"/>
</filter>
<filter id="filter2_d_4_104" x="100.987" y="7.98724" width="26.9255" height="63.7255" filterUnits="userSpaceOnUse" color-interpolation-filters="sRGB">
<feFlood flood-opacity="0" result="BackgroundImageFix"/>
<feColorMatrix in="SourceAlpha" type="matrix" values="0 0 0 0 0 0 0 0 0 0 0 0 0 0 0 0 0 0 127 0" result="hardAlpha"/>
<feOffset dy="4"/>
<feGaussianBlur stdDeviation="2"/>
<feComposite in2="hardAlpha" operator="out"/>
<feColorMatrix type="matrix" values="0 0 0 0 0 0 0 0 0 0 0 0 0 0 0 0 0 0 0.25 0"/>
<feBlend mode="normal" in2="BackgroundImageFix" result="effect1_dropShadow_4_104"/>
<feBlend mode="normal" in="SourceGraphic" in2="effect1_dropShadow_4_104" result="shape"/>
</filter>
<filter id="filter3_d_4_104" x="121.987" y="13.6" width="18.3058" height="18.5" filterUnits="userSpaceOnUse" color-interpolation-filters="sRGB">
<feFlood flood-opacity="0" result="BackgroundImageFix"/>
<feColorMatrix in="SourceAlpha" type="matrix" values="0 0 0 0 0 0 0 0 0 0 0 0 0 0 0 0 0 0 127 0" result="hardAlpha"/>
<feOffset dy="4"/>
<feGaussianBlur stdDeviation="2"/>
<feComposite in2="hardAlpha" operator="out"/>
<feColorMatrix type="matrix" values="0 0 0 0 0 0 0 0 0 0 0 0 0 0 0 0 0 0 0.25 0"/>
<feBlend mode="normal" in2="BackgroundImageFix" result="effect1_dropShadow_4_104"/>
<feBlend mode="normal" in="SourceGraphic" in2="effect1_dropShadow_4_104" result="shape"/>
</filter>
<filter id="filter4_d_4_104" x="110.481" y="21.3848" width="25.034" height="58.0305" filterUnits="userSpaceOnUse" color-interpolation-filters="sRGB">
<feFlood flood-opacity="0" result="BackgroundImageFix"/>
<feColorMatrix in="SourceAlpha" type="matrix" values="0 0 0 0 0 0 0 0 0 0 0 0 0 0 0 0 0 0 127 0" result="hardAlpha"/>
<feOffset dy="4"/>
<feGaussianBlur stdDeviation="2"/>
<feComposite in2="hardAlpha" operator="out"/>
<feColorMatrix type="matrix" values="0 0 0 0 0 0 0 0 0 0 0 0 0 0 0 0 0 0 0.25 0"/>
<feBlend mode="normal" in2="BackgroundImageFix" result="effect1_dropShadow_4_104"/>
<feBlend mode="normal" in="SourceGraphic" in2="effect1_dropShadow_4_104" result="shape"/>
</filter>
<filter id="filter5_d_4_104" x="126.8" y="31.8" width="13" height="13.1" filterUnits="userSpaceOnUse" color-interpolation-filters="sRGB">
<feFlood flood-opacity="0" result="BackgroundImageFix"/>
<feColorMatrix in="SourceAlpha" type="matrix" values="0 0 0 0 0 0 0 0 0 0 0 0 0 0 0 0 0 0 127 0" result="hardAlpha"/>
<feOffset dy="4"/>
<feGaussianBlur stdDeviation="2"/>
<feComposite in2="hardAlpha" operator="out"/>
<feColorMatrix type="matrix" values="0 0 0 0 0 0 0 0 0 0 0 0 0 0 0 0 0 0 0.25 0"/>
<feBlend mode="normal" in2="BackgroundImageFix" result="effect1_dropShadow_4_104"/>
<feBlend mode="normal" in="SourceGraphic" in2="effect1_dropShadow_4_104" result="shape"/>
</filter>
<filter id="filter6_d_4_104" x="114.496" y="35.6872" width="22.9081" height="54.6256" filterUnits="userSpaceOnUse" color-interpolation-filters="sRGB">
<feFlood flood-opacity="0" result="BackgroundImageFix"/>
<feColorMatrix in="SourceAlpha" type="matrix" values="0 0 0 0 0 0 0 0 0 0 0 0 0 0 0 0 0 0 127 0" result="hardAlpha"/>
<feOffset dy="4"/>
<feGaussianBlur stdDeviation="2"/>
<feComposite in2="hardAlpha" operator="out"/>
<feColorMatrix type="matrix" values="0 0 0 0 0 0 0 0 0 0 0 0 0 0 0 0 0 0 0.25 0"/>
<feBlend mode="normal" in2="BackgroundImageFix" result="effect1_dropShadow_4_104"/>
<feBlend mode="normal" in="SourceGraphic" in2="effect1_dropShadow_4_104" result="shape"/>
</filter>
<filter id="filter7_d_4_104" x="115.8" y="25.9" width="13.0019" height="13.1" filterUnits="userSpaceOnUse" color-interpolation-filters="sRGB">
<feFlood flood-opacity="0" result="BackgroundImageFix"/>
<feColorMatrix in="SourceAlpha" type="matrix" values="0 0 0 0 0 0 0 0 0 0 0 0 0 0 0 0 0 0 127 0" result="hardAlpha"/>
<feOffset dy="4"/>
<feGaussianBlur stdDeviation="2"/>
<feComposite in2="hardAlpha" operator="out"/>
<feColorMatrix type="matrix" values="0 0 0 0 0 0 0 0 0 0 0 0 0 0 0 0 0 0 0.25 0"/>
<feBlend mode="normal" in2="BackgroundImageFix" result="effect1_dropShadow_4_104"/>
<feBlend mode="normal" in="SourceGraphic" in2="effect1_dropShadow_4_104" result="shape"/>
</filter>
<filter id="filter8_d_4_104" x="106.719" y="29.7808" width="19.718" height="44.0383" filterUnits="userSpaceOnUse" color-interpolation-filters="sRGB">
<feFlood flood-opacity="0" result="BackgroundImageFix"/>
<feColorMatrix in="SourceAlpha" type="matrix" values="0 0 0 0 0 0 0 0 0 0 0 0 0 0 0 0 0 0 127 0" result="hardAlpha"/>
<feOffset dy="4"/>
<feGaussianBlur stdDeviation="2"/>
<feComposite in2="hardAlpha" operator="out"/>
<feColorMatrix type="matrix" values="0 0 0 0 0 0 0 0 0 0 0 0 0 0 0 0 0 0 0.25 0"/>
<feBlend mode="normal" in2="BackgroundImageFix" result="effect1_dropShadow_4_104"/>
<feBlend mode="normal" in="SourceGraphic" in2="effect1_dropShadow_4_104" result="shape"/>
</filter>
<filter id="filter9_d_4_104" x="135.987" y="9.19995" width="18.3251" height="18.6" filterUnits="userSpaceOnUse" color-interpolation-filters="sRGB">
<feFlood flood-opacity="0" result="BackgroundImageFix"/>
<feColorMatrix in="SourceAlpha" type="matrix" values="0 0 0 0 0 0 0 0 0 0 0 0 0 0 0 0 0 0 127 0" result="hardAlpha"/>
<feOffset dy="4"/>
<feGaussianBlur stdDeviation="2"/>
<feComposite in2="hardAlpha" operator="out"/>
<feColorMatrix type="matrix" values="0 0 0 0 0 0 0 0 0 0 0 0 0 0 0 0 0 0 0.25 0"/>
<feBlend mode="normal" in2="BackgroundImageFix" result="effect1_dropShadow_4_104"/>
<feBlend mode="normal" in="SourceGraphic" in2="effect1_dropShadow_4_104" result="shape"/>
</filter>
<filter id="filter10_d_4_104" x="116.939" y="17.3658" width="32.4787" height="83.2684" filterUnits="userSpaceOnUse" color-interpolation-filters="sRGB">
<feFlood flood-opacity="0" result="BackgroundImageFix"/>
<feColorMatrix in="SourceAlpha" type="matrix" values="0 0 0 0 0 0 0 0 0 0 0 0 0 0 0 0 0 0 127 0" result="hardAlpha"/>
<feOffset dy="4"/>
<feGaussianBlur stdDeviation="2"/>
<feComposite in2="hardAlpha" operator="out"/>
<feColorMatrix type="matrix" values="0 0 0 0 0 0 0 0 0 0 0 0 0 0 0 0 0 0 0.25 0"/>
<feBlend mode="normal" in2="BackgroundImageFix" result="effect1_dropShadow_4_104"/>
<feBlend mode="normal" in="SourceGraphic" in2="effect1_dropShadow_4_104" result="shape"/>
</filter>
<filter id="filter11_d_4_104" x="50.7" y="4.19995" width="76.5" height="121.5" filterUnits="userSpaceOnUse" color-interpolation-filters="sRGB">
<feFlood flood-opacity="0" result="BackgroundImageFix"/>
<feColorMatrix in="SourceAlpha" type="matrix" values="0 0 0 0 0 0 0 0 0 0 0 0 0 0 0 0 0 0 127 0" result="hardAlpha"/>
<feOffset dy="4"/>
<feGaussianBlur stdDeviation="2"/>
<feComposite in2="hardAlpha" operator="out"/>
<feColorMatrix type="matrix" values="0 0 0 0 0 0 0 0 0 0 0 0 0 0 0 0 0 0 0.25 0"/>
<feBlend mode="normal" in2="BackgroundImageFix" result="effect1_dropShadow_4_104"/>
<feBlend mode="normal" in="SourceGraphic" in2="effect1_dropShadow_4_104" result="shape"/>
</filter>
</defs>
</svg>
